<svg width="32" height="32" viewBox="0 0 32 32" fill="none" xmlns="http://www.w3.org/2000/svg">
<path d="M19.0751 30.2827C19.0965 30.5171 19.2047 30.7351 19.3786 30.8938C19.5524 31.0526 19.7793 31.1406 20.0147 31.1406H27.7545C27.9899 31.1406 28.2168 31.0526 28.3907 30.8938C28.5645 30.7351 28.6728 30.5171 28.6941 30.2827L29.7057 19.1543H18.0635L19.0751 30.2827Z" fill="#8047F8"/>
<path d="M30.1906 13.4766H29.8777L28.8321 10.3396C28.7692 10.1508 28.6485 9.98666 28.4871 9.87033C28.3257 9.75401 28.1318 9.69141 27.9328 9.69141H19.8364C19.6374 9.69141 19.4435 9.75401 19.2821 9.87033C19.1207 9.98666 19 10.1508 18.937 10.3396L17.8914 13.4766H17.5751C17.4509 13.4766 17.328 13.501 17.2133 13.5485C17.0986 13.596 16.9944 13.6657 16.9066 13.7534C16.8188 13.8412 16.7492 13.9454 16.7017 14.0601C16.6542 14.1748 16.6297 14.2977 16.6297 14.4219V16.3164C16.6297 16.4405 16.6542 16.5635 16.7017 16.6782C16.7492 16.7929 16.8188 16.8971 16.9066 16.9848C16.9944 17.0726 17.0986 17.1423 17.2133 17.1898C17.328 17.2373 17.4509 17.2617 17.5751 17.2617H30.1906C30.3152 17.2617 30.4386 17.2372 30.5537 17.1895C30.6688 17.1418 30.7734 17.0719 30.8615 16.9838C30.9497 16.8957 31.0196 16.7911 31.0672 16.676C31.1149 16.5608 31.1395 16.4375 31.1395 16.3128V14.4255C31.1395 14.3009 31.1149 14.1775 31.0672 14.0623C31.0196 13.9472 30.9497 13.8426 30.8616 13.7545C30.7734 13.6664 30.6688 13.5965 30.5537 13.5488C30.4386 13.5011 30.3152 13.4766 30.1906 13.4766Z" fill="#8047F8"/>
<path d="M0.860535 25.136V25.4514C0.860267 25.8674 0.941999 26.2793 1.10106 26.6637C1.26011 27.048 1.49338 27.3972 1.7875 27.6914C2.08163 27.9855 2.43086 28.2188 2.81521 28.3778C3.19955 28.5369 3.61149 28.6186 4.02745 28.6183H17.0294L16.7078 25.136H0.860535Z" fill="#8047F8"/>
<path d="M16.1273 18.7454C15.7058 18.495 15.3563 18.1396 15.1131 17.714C14.8698 17.2883 14.7411 16.8068 14.7394 16.3166V14.424C14.7397 13.7234 14.9979 13.0474 15.4649 12.5251H0.860535V23.2434H16.5375L16.1273 18.7454ZM12.1151 18.3101L10.538 21.4643C10.4593 21.6213 10.3386 21.7534 10.1894 21.8458C10.0401 21.9383 9.86813 21.9875 9.69257 21.988C9.54559 21.9891 9.40055 21.9545 9.26994 21.887C9.15811 21.8324 9.05823 21.7561 8.97604 21.6627C8.89385 21.5692 8.831 21.4604 8.7911 21.3425C8.75121 21.2246 8.73506 21.0999 8.7436 20.9758C8.75213 20.8516 8.78518 20.7304 8.84084 20.619L9.73676 18.8337H8.11542C7.95393 18.834 7.79503 18.7931 7.65379 18.7149C7.51254 18.6366 7.39363 18.5235 7.30832 18.3864C7.22301 18.2493 7.17414 18.0927 7.16633 17.9314C7.15853 17.7701 7.19205 17.6095 7.26371 17.4648L8.84086 14.3105C8.89616 14.1987 8.97297 14.0989 9.06689 14.0168C9.16081 13.9348 9.27 13.8721 9.3882 13.8323C9.5064 13.7925 9.63129 13.7764 9.75572 13.785C9.88014 13.7936 10.0016 13.8266 10.1133 13.8822C10.2249 13.9378 10.3245 14.0149 10.4063 14.109C10.4881 14.2032 10.5505 14.3126 10.5899 14.4309C10.6294 14.5492 10.6451 14.6741 10.6362 14.7985C10.6273 14.9229 10.5939 15.0443 10.538 15.1558L9.64207 16.9412H11.2697C11.4307 16.9419 11.5888 16.9836 11.7292 17.0623C11.8696 17.141 11.9876 17.2542 12.0722 17.3911C12.1568 17.5281 12.2051 17.6843 12.2126 17.845C12.2201 18.0058 12.1865 18.1658 12.1151 18.3101Z" fill="#8047F8"/>
<path d="M17.1431 9.743C17.3308 9.17706 17.6922 8.68469 18.1757 8.33587C18.6593 7.98705 19.2406 7.79953 19.8368 7.79996H22.2908C21.9851 7.43965 21.633 7.12145 21.2436 6.85367H3.18207C2.55457 7.2849 2.02629 7.84503 1.63249 8.49667C1.23869 9.14831 0.988439 9.87646 0.898438 10.6325H16.8466L17.1431 9.743Z" fill="#8047F8"/>
<path d="M21.6766 2.75234C21.6766 2.25029 21.4771 1.7688 21.1221 1.4138C20.7671 1.0588 20.2856 0.859371 19.7835 0.859375H4.64365C4.39507 0.85938 4.14893 0.908347 3.91927 1.00348C3.68961 1.09861 3.48094 1.23805 3.30517 1.41383C3.1294 1.58961 2.98998 1.79828 2.89486 2.02795C2.79974 2.25761 2.75078 2.50376 2.75079 2.75234V4.95996H21.6766V2.75234Z" fill="#8047F8"/>
</svg>
