<svg width="90" height="38" viewBox="0 0 90 38" fill="none" xmlns="http://www.w3.org/2000/svg">
<path d="M37.822 23C37.584 23 37.395 22.93 37.255 22.79C37.115 22.65 37.031 22.489 37.003 22.307L34.714 8.888C34.7 8.86 34.693 8.832 34.693 8.804C34.693 8.776 34.693 8.755 34.693 8.741C34.693 8.629 34.735 8.531 34.819 8.447C34.917 8.349 35.022 8.3 35.134 8.3H37.738C38.13 8.3 38.347 8.454 38.389 8.762L39.754 16.973L41.266 12.122C41.308 12.01 41.378 11.891 41.476 11.765C41.574 11.625 41.735 11.555 41.959 11.555H43.471C43.709 11.555 43.877 11.625 43.975 11.765C44.073 11.891 44.136 12.01 44.164 12.122L45.676 16.952L47.041 8.762C47.083 8.454 47.3 8.3 47.692 8.3H50.296C50.422 8.3 50.527 8.349 50.611 8.447C50.695 8.531 50.737 8.629 50.737 8.741C50.737 8.755 50.737 8.776 50.737 8.804C50.737 8.832 50.737 8.86 50.737 8.888L48.448 22.307C48.42 22.489 48.336 22.65 48.196 22.79C48.056 22.93 47.867 23 47.629 23H45.634C45.396 23 45.214 22.937 45.088 22.811C44.962 22.685 44.878 22.566 44.836 22.454L42.715 16.448L40.594 22.454C40.552 22.566 40.468 22.685 40.342 22.811C40.23 22.937 40.055 23 39.817 23H37.822ZM53.1956 23C53.0416 23 52.9156 22.951 52.8176 22.853C52.7196 22.755 52.6706 22.629 52.6706 22.475V8.615C52.6706 8.461 52.7196 8.335 52.8176 8.237C52.9156 8.139 53.0416 8.09 53.1956 8.09H55.8836C56.0376 8.09 56.1636 8.139 56.2616 8.237C56.3596 8.335 56.4086 8.461 56.4086 8.615V13.298C56.7866 12.864 57.2486 12.521 57.7946 12.269C58.3546 12.003 58.9986 11.87 59.7266 11.87C60.5386 11.87 61.2596 12.052 61.8896 12.416C62.5336 12.78 63.0376 13.319 63.4016 14.033C63.7656 14.733 63.9476 15.594 63.9476 16.616V22.475C63.9476 22.629 63.8986 22.755 63.8006 22.853C63.7026 22.951 63.5766 23 63.4226 23H60.7136C60.5736 23 60.4476 22.951 60.3356 22.853C60.2376 22.755 60.1886 22.629 60.1886 22.475V16.742C60.1886 16.084 60.0276 15.58 59.7056 15.23C59.3976 14.866 58.9356 14.684 58.3196 14.684C57.7456 14.684 57.2836 14.866 56.9336 15.23C56.5836 15.58 56.4086 16.084 56.4086 16.742V22.475C56.4086 22.629 56.3596 22.755 56.2616 22.853C56.1636 22.951 56.0376 23 55.8836 23H53.1956ZM71.3688 23.21C69.7168 23.21 68.4008 22.762 67.4208 21.866C66.4408 20.97 65.9298 19.64 65.8878 17.876C65.8878 17.778 65.8878 17.652 65.8878 17.498C65.8878 17.344 65.8878 17.225 65.8878 17.141C65.9298 16.035 66.1748 15.09 66.6228 14.306C67.0848 13.508 67.7148 12.906 68.5128 12.5C69.3248 12.08 70.2698 11.87 71.3478 11.87C72.5798 11.87 73.5948 12.115 74.3928 12.605C75.2048 13.095 75.8138 13.76 76.2198 14.6C76.6258 15.44 76.8288 16.399 76.8288 17.477V17.981C76.8288 18.135 76.7728 18.261 76.6608 18.359C76.5628 18.457 76.4438 18.506 76.3038 18.506H69.5838C69.5838 18.52 69.5838 18.541 69.5838 18.569C69.5838 18.597 69.5838 18.625 69.5838 18.653C69.5978 19.059 69.6678 19.43 69.7938 19.766C69.9198 20.102 70.1158 20.368 70.3818 20.564C70.6478 20.76 70.9698 20.858 71.3478 20.858C71.6278 20.858 71.8588 20.816 72.0408 20.732C72.2368 20.634 72.3978 20.529 72.5238 20.417C72.6498 20.291 72.7478 20.186 72.8178 20.102C72.9438 19.962 73.0418 19.878 73.1118 19.85C73.1958 19.808 73.3218 19.787 73.4898 19.787H76.0938C76.2338 19.787 76.3458 19.829 76.4298 19.913C76.5278 19.983 76.5698 20.088 76.5558 20.228C76.5418 20.466 76.4228 20.753 76.1988 21.089C75.9748 21.425 75.6458 21.761 75.2118 22.097C74.7918 22.419 74.2598 22.685 73.6158 22.895C72.9718 23.105 72.2228 23.21 71.3688 23.21ZM69.5838 16.427H73.1328V16.385C73.1328 15.937 73.0628 15.545 72.9228 15.209C72.7968 14.873 72.5938 14.614 72.3138 14.432C72.0478 14.25 71.7258 14.159 71.3478 14.159C70.9698 14.159 70.6478 14.25 70.3818 14.432C70.1298 14.614 69.9338 14.873 69.7938 15.209C69.6538 15.545 69.5838 15.937 69.5838 16.385V16.427ZM80.3629 26.99C80.2369 26.99 80.1319 26.948 80.0479 26.864C79.9639 26.78 79.9219 26.675 79.9219 26.549C79.9219 26.521 79.9219 26.479 79.9219 26.423C79.9359 26.381 79.9569 26.332 79.9849 26.276L81.6229 22.328L77.5909 12.794C77.5489 12.696 77.5279 12.612 77.5279 12.542C77.5559 12.416 77.6119 12.311 77.6959 12.227C77.7799 12.129 77.8849 12.08 78.0109 12.08H80.4049C80.5869 12.08 80.7199 12.129 80.8039 12.227C80.9019 12.311 80.9649 12.409 80.9929 12.521L83.4079 18.632L85.8649 12.521C85.9209 12.409 85.9909 12.311 86.0749 12.227C86.1729 12.129 86.3129 12.08 86.4949 12.08H88.8469C88.9729 12.08 89.0779 12.129 89.1619 12.227C89.2599 12.311 89.3089 12.409 89.3089 12.521C89.3089 12.591 89.2879 12.682 89.2459 12.794L83.3029 26.549C83.2609 26.661 83.1909 26.759 83.0929 26.843C82.9949 26.941 82.8549 26.99 82.6729 26.99H80.3629ZM35.54 35C35.4373 35 35.358 34.972 35.302 34.916C35.246 34.8507 35.218 34.7713 35.218 34.678V25.536C35.218 25.4333 35.246 25.354 35.302 25.298C35.358 25.2327 35.4373 25.2 35.54 25.2H38.718C39.6793 25.2 40.454 25.3447 41.042 25.634C41.63 25.9233 42.0593 26.3527 42.33 26.922C42.6007 27.482 42.7407 28.1727 42.75 28.994C42.7593 29.414 42.764 29.7827 42.764 30.1C42.764 30.4173 42.7593 30.7813 42.75 31.192C42.7313 32.0507 42.5867 32.7647 42.316 33.334C42.0547 33.894 41.6347 34.314 41.056 34.594C40.4867 34.8647 39.7307 35 38.788 35H35.54ZM36.59 33.81H38.718C39.362 33.81 39.8753 33.7213 40.258 33.544C40.6407 33.3667 40.916 33.082 41.084 32.69C41.2613 32.298 41.3547 31.78 41.364 31.136C41.3827 30.856 41.392 30.6133 41.392 30.408C41.392 30.1933 41.392 29.9833 41.392 29.778C41.392 29.5633 41.3827 29.3207 41.364 29.05C41.3453 28.1447 41.1307 27.4773 40.72 27.048C40.3093 26.6093 39.6187 26.39 38.648 26.39H36.59V33.81ZM47.5863 35.14C46.625 35.14 45.8597 34.846 45.2903 34.258C44.721 33.6607 44.4083 32.8487 44.3523 31.822C44.343 31.7007 44.3383 31.5467 44.3383 31.36C44.3383 31.164 44.343 31.0053 44.3523 30.884C44.3897 30.2213 44.5437 29.6427 44.8143 29.148C45.085 28.644 45.4537 28.2567 45.9203 27.986C46.3963 27.7153 46.9517 27.58 47.5863 27.58C48.2957 27.58 48.8883 27.7293 49.3643 28.028C49.8497 28.3267 50.2183 28.7513 50.4703 29.302C50.7223 29.8527 50.8483 30.4967 50.8483 31.234V31.472C50.8483 31.5747 50.8157 31.654 50.7503 31.71C50.6943 31.766 50.6197 31.794 50.5263 31.794H45.6823C45.6823 31.8033 45.6823 31.822 45.6823 31.85C45.6823 31.878 45.6823 31.9013 45.6823 31.92C45.701 32.3027 45.785 32.662 45.9343 32.998C46.0837 33.3247 46.2983 33.5907 46.5783 33.796C46.8583 34.0013 47.1943 34.104 47.5863 34.104C47.9223 34.104 48.2023 34.0527 48.4263 33.95C48.6503 33.8473 48.8323 33.7353 48.9723 33.614C49.1123 33.4833 49.2057 33.3853 49.2523 33.32C49.3363 33.1987 49.4017 33.1287 49.4483 33.11C49.495 33.082 49.5697 33.068 49.6723 33.068H50.3443C50.4377 33.068 50.5123 33.096 50.5683 33.152C50.6337 33.1987 50.6617 33.2687 50.6523 33.362C50.643 33.502 50.5683 33.6747 50.4283 33.88C50.2883 34.076 50.0877 34.272 49.8263 34.468C49.565 34.664 49.2477 34.8273 48.8743 34.958C48.501 35.0793 48.0717 35.14 47.5863 35.14ZM45.6823 30.828H49.5183V30.786C49.5183 30.366 49.439 29.9927 49.2803 29.666C49.131 29.3393 48.9117 29.0827 48.6223 28.896C48.333 28.7 47.9877 28.602 47.5863 28.602C47.185 28.602 46.8397 28.7 46.5503 28.896C46.2703 29.0827 46.0557 29.3393 45.9063 29.666C45.757 29.9927 45.6823 30.366 45.6823 30.786V30.828ZM52.8583 35C52.765 35 52.6857 34.972 52.6203 34.916C52.5643 34.8507 52.5363 34.7713 52.5363 34.678V25.382C52.5363 25.2887 52.5643 25.214 52.6203 25.158C52.6857 25.0927 52.765 25.06 52.8583 25.06H53.5163C53.619 25.06 53.6983 25.0927 53.7543 25.158C53.8103 25.214 53.8383 25.2887 53.8383 25.382V34.678C53.8383 34.7713 53.8103 34.8507 53.7543 34.916C53.6983 34.972 53.619 35 53.5163 35H52.8583ZM56.3853 35C56.292 35 56.2127 34.972 56.1473 34.916C56.0913 34.8507 56.0633 34.7713 56.0633 34.678V28.042C56.0633 27.9487 56.0913 27.874 56.1473 27.818C56.2127 27.7527 56.292 27.72 56.3853 27.72H57.0573C57.1507 27.72 57.2253 27.7527 57.2813 27.818C57.3373 27.874 57.3653 27.9487 57.3653 28.042V34.678C57.3653 34.7713 57.3373 34.8507 57.2813 34.916C57.2253 34.972 57.1507 35 57.0573 35H56.3853ZM56.2733 26.362C56.18 26.362 56.1007 26.334 56.0353 26.278C55.9793 26.2127 55.9513 26.1333 55.9513 26.04V25.284C55.9513 25.1907 55.9793 25.116 56.0353 25.06C56.1007 24.9947 56.18 24.962 56.2733 24.962H57.1553C57.2487 24.962 57.3233 24.9947 57.3793 25.06C57.4447 25.116 57.4773 25.1907 57.4773 25.284V26.04C57.4773 26.1333 57.4447 26.2127 57.3793 26.278C57.3233 26.334 57.2487 26.362 57.1553 26.362H56.2733ZM61.988 35C61.848 35 61.736 34.9673 61.652 34.902C61.5773 34.8367 61.5166 34.7527 61.47 34.65L58.88 28.154C58.8613 28.1073 58.852 28.0607 58.852 28.014C58.852 27.93 58.88 27.86 58.936 27.804C58.992 27.748 59.062 27.72 59.146 27.72H59.818C59.9206 27.72 60 27.748 60.056 27.804C60.112 27.86 60.1446 27.9113 60.154 27.958L62.296 33.474L64.424 27.958C64.4426 27.9113 64.4753 27.86 64.522 27.804C64.578 27.748 64.6573 27.72 64.76 27.72H65.446C65.5206 27.72 65.586 27.748 65.642 27.804C65.7073 27.86 65.74 27.93 65.74 28.014C65.74 28.0607 65.7306 28.1073 65.712 28.154L63.108 34.65C63.0706 34.7527 63.01 34.8367 62.926 34.902C62.8513 34.9673 62.7393 35 62.59 35H61.988ZM69.8442 35.14C68.8828 35.14 68.1175 34.846 67.5482 34.258C66.9788 33.6607 66.6662 32.8487 66.6102 31.822C66.6008 31.7007 66.5962 31.5467 66.5962 31.36C66.5962 31.164 66.6008 31.0053 66.6102 30.884C66.6475 30.2213 66.8015 29.6427 67.0722 29.148C67.3428 28.644 67.7115 28.2567 68.1782 27.986C68.6542 27.7153 69.2095 27.58 69.8442 27.58C70.5535 27.58 71.1462 27.7293 71.6222 28.028C72.1075 28.3267 72.4762 28.7513 72.7282 29.302C72.9802 29.8527 73.1062 30.4967 73.1062 31.234V31.472C73.1062 31.5747 73.0735 31.654 73.0082 31.71C72.9522 31.766 72.8775 31.794 72.7842 31.794H67.9402C67.9402 31.8033 67.9402 31.822 67.9402 31.85C67.9402 31.878 67.9402 31.9013 67.9402 31.92C67.9588 32.3027 68.0428 32.662 68.1922 32.998C68.3415 33.3247 68.5562 33.5907 68.8362 33.796C69.1162 34.0013 69.4522 34.104 69.8442 34.104C70.1802 34.104 70.4602 34.0527 70.6842 33.95C70.9082 33.8473 71.0902 33.7353 71.2302 33.614C71.3702 33.4833 71.4635 33.3853 71.5102 33.32C71.5942 33.1987 71.6595 33.1287 71.7062 33.11C71.7528 33.082 71.8275 33.068 71.9302 33.068H72.6022C72.6955 33.068 72.7702 33.096 72.8262 33.152C72.8915 33.1987 72.9195 33.2687 72.9102 33.362C72.9008 33.502 72.8262 33.6747 72.6862 33.88C72.5462 34.076 72.3455 34.272 72.0842 34.468C71.8228 34.664 71.5055 34.8273 71.1322 34.958C70.7588 35.0793 70.3295 35.14 69.8442 35.14ZM67.9402 30.828H71.7762V30.786C71.7762 30.366 71.6968 29.9927 71.5382 29.666C71.3888 29.3393 71.1695 29.0827 70.8802 28.896C70.5908 28.7 70.2455 28.602 69.8442 28.602C69.4428 28.602 69.0975 28.7 68.8082 28.896C68.5282 29.0827 68.3135 29.3393 68.1642 29.666C68.0148 29.9927 67.9402 30.366 67.9402 30.786V30.828ZM75.1021 35C75.0088 35 74.9295 34.972 74.8641 34.916C74.8081 34.8507 74.7801 34.7713 74.7801 34.678V28.056C74.7801 27.9627 74.8081 27.8833 74.8641 27.818C74.9295 27.7527 75.0088 27.72 75.1021 27.72H75.7461C75.8395 27.72 75.9188 27.7527 75.9841 27.818C76.0495 27.8833 76.0821 27.9627 76.0821 28.056V28.672C76.2688 28.3547 76.5255 28.1167 76.8521 27.958C77.1788 27.7993 77.5708 27.72 78.0281 27.72H78.5881C78.6815 27.72 78.7561 27.7527 78.8121 27.818C78.8681 27.874 78.8961 27.9487 78.8961 28.042V28.616C78.8961 28.7093 78.8681 28.784 78.8121 28.84C78.7561 28.896 78.6815 28.924 78.5881 28.924H77.7481C77.2441 28.924 76.8475 29.0733 76.5581 29.372C76.2688 29.6613 76.1241 30.058 76.1241 30.562V34.678C76.1241 34.7713 76.0915 34.8507 76.0261 34.916C75.9608 34.972 75.8815 35 75.7881 35H75.1021ZM81.3725 37.66C81.2978 37.66 81.2325 37.632 81.1765 37.576C81.1205 37.52 81.0925 37.4547 81.0925 37.38C81.0925 37.3427 81.0972 37.3053 81.1065 37.268C81.1158 37.2307 81.1345 37.184 81.1625 37.128L82.2405 34.566L79.5665 28.252C79.5198 28.14 79.4965 28.0607 79.4965 28.014C79.4965 27.93 79.5245 27.86 79.5805 27.804C79.6365 27.748 79.7065 27.72 79.7905 27.72H80.4765C80.5698 27.72 80.6445 27.7433 80.7005 27.79C80.7565 27.8367 80.7938 27.8927 80.8125 27.958L82.9405 33.054L85.1245 27.958C85.1525 27.8927 85.1898 27.8367 85.2365 27.79C85.2925 27.7433 85.3718 27.72 85.4745 27.72H86.1325C86.2165 27.72 86.2865 27.748 86.3425 27.804C86.3985 27.86 86.4265 27.9253 86.4265 28C86.4265 28.0467 86.4032 28.1307 86.3565 28.252L82.3805 37.422C82.3525 37.4873 82.3105 37.5433 82.2545 37.59C82.2078 37.6367 82.1332 37.66 82.0305 37.66H81.3725Z" fill="#272221"/>
<path d="M22.0751 33.2827C22.0965 33.5171 22.2047 33.7351 22.3786 33.8938C22.5524 34.0526 22.7793 34.1406 23.0147 34.1406H30.7545C30.9899 34.1406 31.2168 34.0526 31.3907 33.8938C31.5645 33.7351 31.6728 33.5171 31.6941 33.2827L32.7057 22.1543H21.0635L22.0751 33.2827Z" fill="#8047F8"/>
<path d="M33.1906 16.4766H32.8777L31.8321 13.3396C31.7692 13.1508 31.6485 12.9867 31.4871 12.8703C31.3257 12.754 31.1318 12.6914 30.9328 12.6914H22.8364C22.6374 12.6914 22.4435 12.754 22.2821 12.8703C22.1207 12.9867 22 13.1508 21.937 13.3396L20.8914 16.4766H20.5751C20.4509 16.4766 20.328 16.501 20.2133 16.5485C20.0986 16.596 19.9944 16.6657 19.9066 16.7534C19.8188 16.8412 19.7492 16.9454 19.7017 17.0601C19.6542 17.1748 19.6297 17.2977 19.6297 17.4219V19.3164C19.6297 19.4405 19.6542 19.5635 19.7017 19.6782C19.7492 19.7929 19.8188 19.8971 19.9066 19.9848C19.9944 20.0726 20.0986 20.1423 20.2133 20.1898C20.328 20.2373 20.4509 20.2617 20.5751 20.2617H33.1906C33.3152 20.2617 33.4386 20.2372 33.5537 20.1895C33.6688 20.1418 33.7734 20.0719 33.8615 19.9838C33.9497 19.8957 34.0196 19.7911 34.0672 19.676C34.1149 19.5608 34.1395 19.4375 34.1395 19.3128V17.4255C34.1395 17.3009 34.1149 17.1775 34.0672 17.0623C34.0196 16.9472 33.9497 16.8426 33.8616 16.7545C33.7734 16.6664 33.6688 16.5965 33.5537 16.5488C33.4386 16.5011 33.3152 16.4766 33.1906 16.4766Z" fill="#8047F8"/>
<path d="M3.86054 28.136V28.4514C3.86027 28.8674 3.942 29.2793 4.10106 29.6637C4.26011 30.048 4.49338 30.3972 4.7875 30.6914C5.08163 30.9855 5.43086 31.2188 5.81521 31.3778C6.19955 31.5369 6.61149 31.6186 7.02745 31.6183H20.0294L19.7078 28.136H3.86054Z" fill="#8047F8"/>
<path d="M19.1273 21.7454C18.7058 21.495 18.3563 21.1396 18.1131 20.714C17.8698 20.2883 17.7411 19.8068 17.7394 19.3166V17.424C17.7397 16.7234 17.9979 16.0474 18.4649 15.5251H3.86053V26.2434H19.5375L19.1273 21.7454ZM15.1151 21.3101L13.538 24.4643C13.4593 24.6213 13.3386 24.7534 13.1894 24.8458C13.0401 24.9383 12.8681 24.9875 12.6926 24.988C12.5456 24.9891 12.4005 24.9545 12.2699 24.887C12.1581 24.8324 12.0582 24.7561 11.976 24.6627C11.8939 24.5692 11.831 24.4604 11.7911 24.3425C11.7512 24.2246 11.7351 24.0999 11.7436 23.9758C11.7521 23.8516 11.7852 23.7304 11.8408 23.619L12.7368 21.8337H11.1154C10.9539 21.834 10.795 21.7931 10.6538 21.7149C10.5125 21.6366 10.3936 21.5235 10.3083 21.3864C10.223 21.2493 10.1741 21.0927 10.1663 20.9314C10.1585 20.7701 10.192 20.6095 10.2637 20.4648L11.8409 17.3105C11.8962 17.1987 11.973 17.0989 12.0669 17.0168C12.1608 16.9348 12.27 16.8721 12.3882 16.8323C12.5064 16.7925 12.6313 16.7764 12.7557 16.785C12.8801 16.7936 13.0016 16.8266 13.1133 16.8822C13.2249 16.9378 13.3245 17.0149 13.4063 17.109C13.4881 17.2032 13.5505 17.3126 13.5899 17.4309C13.6294 17.5492 13.6451 17.6741 13.6362 17.7985C13.6273 17.9229 13.5939 18.0443 13.538 18.1558L12.6421 19.9412H14.2697C14.4307 19.9419 14.5888 19.9836 14.7292 20.0623C14.8696 20.141 14.9876 20.2542 15.0722 20.3911C15.1568 20.5281 15.2051 20.6843 15.2126 20.845C15.2201 21.0058 15.1865 21.1658 15.1151 21.3101Z" fill="#8047F8"/>
<path d="M20.1431 12.743C20.3308 12.1771 20.6922 11.6847 21.1757 11.3359C21.6593 10.987 22.2406 10.7995 22.8368 10.8H25.2908C24.9851 10.4396 24.633 10.1214 24.2436 9.85367H6.18207C5.55457 10.2849 5.02629 10.845 4.63249 11.4967C4.23869 12.1483 3.98844 12.8765 3.89844 13.6325H19.8466L20.1431 12.743Z" fill="#8047F8"/>
<path d="M24.6766 5.75234C24.6766 5.25029 24.4771 4.7688 24.1221 4.4138C23.7671 4.0588 23.2856 3.85937 22.7835 3.85938H7.64365C7.39507 3.85938 7.14893 3.90835 6.91927 4.00348C6.68961 4.09861 6.48094 4.23805 6.30517 4.41383C6.1294 4.58961 5.98998 4.79828 5.89486 5.02795C5.79974 5.25761 5.75078 5.50376 5.75079 5.75234V7.95996H24.6766V5.75234Z" fill="#8047F8"/>
</svg>
